G04 #@! TF.FileFunction,Legend,Top*
%FSLAX46Y46*%
G04 Gerber Fmt 4.6, Leading zero omitted, Abs format (unit mm)*
G04 Created by KiCad (PCBNEW 4.0.7) date 12/25/19 13:06:21*
%MOMM*%
%LPD*%
G01*
G04 APERTURE LIST*
%ADD10C,0.100000*%
%ADD11C,0.250000*%
%ADD12C,0.200000*%
%ADD13C,0.120000*%
%ADD14C,0.125000*%
%ADD15C,0.150000*%
G04 APERTURE END LIST*
D10*
D11*
X129881262Y-97924619D02*
X129928881Y-97781762D01*
X129928881Y-97543666D01*
X129881262Y-97448428D01*
X129833643Y-97400809D01*
X129738405Y-97353190D01*
X129643167Y-97353190D01*
X129547929Y-97400809D01*
X129500310Y-97448428D01*
X129452690Y-97543666D01*
X129405071Y-97734143D01*
X129357452Y-97829381D01*
X129309833Y-97877000D01*
X129214595Y-97924619D01*
X129119357Y-97924619D01*
X129024119Y-97877000D01*
X128976500Y-97829381D01*
X128928881Y-97734143D01*
X128928881Y-97496047D01*
X128976500Y-97353190D01*
X129928881Y-96924619D02*
X128928881Y-96924619D01*
X128928881Y-96543666D01*
X128976500Y-96448428D01*
X129024119Y-96400809D01*
X129119357Y-96353190D01*
X129262214Y-96353190D01*
X129357452Y-96400809D01*
X129405071Y-96448428D01*
X129452690Y-96543666D01*
X129452690Y-96924619D01*
X129405071Y-95924619D02*
X129405071Y-95591285D01*
X129928881Y-95448428D02*
X129928881Y-95924619D01*
X128928881Y-95924619D01*
X128928881Y-95448428D01*
X129405071Y-95019857D02*
X129405071Y-94686523D01*
X129928881Y-94543666D02*
X129928881Y-95019857D01*
X128928881Y-95019857D01*
X128928881Y-94543666D01*
X128928881Y-94257952D02*
X129928881Y-93924619D01*
X128928881Y-93591285D01*
X129452690Y-93067476D02*
X129928881Y-93067476D01*
X128928881Y-93400809D02*
X129452690Y-93067476D01*
X128928881Y-92734142D01*
D12*
X128270000Y-85090000D02*
X138430000Y-85090000D01*
D13*
X135950000Y-66932500D02*
X130750000Y-66932500D01*
X135950000Y-66992500D02*
X135950000Y-66932500D01*
X130750000Y-69592500D02*
X130750000Y-66932500D01*
X135950000Y-66992500D02*
X133350000Y-66992500D01*
X133350000Y-66992500D02*
X133350000Y-69592500D01*
X133350000Y-69592500D02*
X130750000Y-69592500D01*
X135950000Y-68262500D02*
X135950000Y-69592500D01*
X135950000Y-69592500D02*
X134620000Y-69592500D01*
X130750000Y-100524000D02*
X130750000Y-103184000D01*
X133350000Y-100524000D02*
X130750000Y-100524000D01*
X133350000Y-103184000D02*
X130750000Y-103184000D01*
X133350000Y-100524000D02*
X133350000Y-103184000D01*
X134620000Y-100524000D02*
X135950000Y-100524000D01*
X135950000Y-100524000D02*
X135950000Y-101854000D01*
X130356500Y-99158500D02*
X130356500Y-100358500D01*
X128596500Y-100358500D02*
X128596500Y-99158500D01*
X136500500Y-100528500D02*
X136500500Y-101528500D01*
X138200500Y-101528500D02*
X138200500Y-100528500D01*
X133729000Y-99624000D02*
X133729000Y-98694000D01*
X133729000Y-96464000D02*
X133729000Y-97394000D01*
X133729000Y-96464000D02*
X131569000Y-96464000D01*
X133729000Y-99624000D02*
X132269000Y-99624000D01*
X132513500Y-96098000D02*
X134313500Y-96098000D01*
X134313500Y-92878000D02*
X131363500Y-92878000D01*
X131175000Y-91987000D02*
X135675000Y-91987000D01*
X129925000Y-87987000D02*
X129925000Y-89487000D01*
X135675000Y-85487000D02*
X131175000Y-85487000D01*
X136925000Y-89487000D02*
X136925000Y-87987000D01*
X135652000Y-78066000D02*
X131152000Y-78066000D01*
X136902000Y-82066000D02*
X136902000Y-80566000D01*
X131152000Y-84566000D02*
X135652000Y-84566000D01*
X129902000Y-80566000D02*
X129902000Y-82066000D01*
X136350500Y-94706500D02*
X136350500Y-99006500D01*
X136350500Y-99006500D02*
X138350500Y-99006500D01*
X138350500Y-99006500D02*
X138350500Y-94706500D01*
D14*
X135088334Y-69893690D02*
X135088334Y-70250833D01*
X135064524Y-70322262D01*
X135016905Y-70369881D01*
X134945477Y-70393690D01*
X134897858Y-70393690D01*
X135302619Y-69941310D02*
X135326429Y-69917500D01*
X135374048Y-69893690D01*
X135493095Y-69893690D01*
X135540714Y-69917500D01*
X135564524Y-69941310D01*
X135588333Y-69988929D01*
X135588333Y-70036548D01*
X135564524Y-70107976D01*
X135278810Y-70393690D01*
X135588333Y-70393690D01*
D15*
X136739381Y-73969262D02*
X136739381Y-73778785D01*
X136787000Y-73683547D01*
X136882238Y-73588309D01*
X137072714Y-73540690D01*
X137406048Y-73540690D01*
X137596524Y-73588309D01*
X137691762Y-73683547D01*
X137739381Y-73778785D01*
X137739381Y-73969262D01*
X137691762Y-74064500D01*
X137596524Y-74159738D01*
X137406048Y-74207357D01*
X137072714Y-74207357D01*
X136882238Y-74159738D01*
X136787000Y-74064500D01*
X136739381Y-73969262D01*
X136739381Y-73112119D02*
X137548905Y-73112119D01*
X137644143Y-73064500D01*
X137691762Y-73016881D01*
X137739381Y-72921643D01*
X137739381Y-72731166D01*
X137691762Y-72635928D01*
X137644143Y-72588309D01*
X137548905Y-72540690D01*
X136739381Y-72540690D01*
X136739381Y-72207357D02*
X136739381Y-71635928D01*
X137739381Y-71921643D02*
X136739381Y-71921643D01*
X137739381Y-71302595D02*
X136739381Y-71302595D01*
X136739381Y-70921642D01*
X136787000Y-70826404D01*
X136834619Y-70778785D01*
X136929857Y-70731166D01*
X137072714Y-70731166D01*
X137167952Y-70778785D01*
X137215571Y-70826404D01*
X137263190Y-70921642D01*
X137263190Y-71302595D01*
X136739381Y-70302595D02*
X137548905Y-70302595D01*
X137644143Y-70254976D01*
X137691762Y-70207357D01*
X137739381Y-70112119D01*
X137739381Y-69921642D01*
X137691762Y-69826404D01*
X137644143Y-69778785D01*
X137548905Y-69731166D01*
X136739381Y-69731166D01*
X136739381Y-69397833D02*
X136739381Y-68826404D01*
X137739381Y-69112119D02*
X136739381Y-69112119D01*
D14*
X133373834Y-103358190D02*
X133373834Y-103715333D01*
X133350024Y-103786762D01*
X133302405Y-103834381D01*
X133230977Y-103858190D01*
X133183358Y-103858190D01*
X133873833Y-103858190D02*
X133588119Y-103858190D01*
X133730976Y-103858190D02*
X133730976Y-103358190D01*
X133683357Y-103429619D01*
X133635738Y-103477238D01*
X133588119Y-103501048D01*
D15*
X136088381Y-100417071D02*
X135088381Y-100417071D01*
X136088381Y-99940881D02*
X135088381Y-99940881D01*
X136088381Y-99369452D01*
X135088381Y-99369452D01*
X136088381Y-98893262D02*
X135088381Y-98893262D01*
X135088381Y-98512309D01*
X135136000Y-98417071D01*
X135183619Y-98369452D01*
X135278857Y-98321833D01*
X135421714Y-98321833D01*
X135516952Y-98369452D01*
X135564571Y-98417071D01*
X135612190Y-98512309D01*
X135612190Y-98893262D01*
X135088381Y-97893262D02*
X135897905Y-97893262D01*
X135993143Y-97845643D01*
X136040762Y-97798024D01*
X136088381Y-97702786D01*
X136088381Y-97512309D01*
X136040762Y-97417071D01*
X135993143Y-97369452D01*
X135897905Y-97321833D01*
X135088381Y-97321833D01*
X135088381Y-96988500D02*
X135088381Y-96417071D01*
X136088381Y-96702786D02*
X135088381Y-96702786D01*
D10*
X129639190Y-101810333D02*
X129401095Y-101977000D01*
X129639190Y-102096047D02*
X129139190Y-102096047D01*
X129139190Y-101905571D01*
X129163000Y-101857952D01*
X129186810Y-101834143D01*
X129234429Y-101810333D01*
X129305857Y-101810333D01*
X129353476Y-101834143D01*
X129377286Y-101857952D01*
X129401095Y-101905571D01*
X129401095Y-102096047D01*
X129639190Y-101334143D02*
X129639190Y-101619857D01*
X129639190Y-101477000D02*
X129139190Y-101477000D01*
X129210619Y-101524619D01*
X129258238Y-101572238D01*
X129282048Y-101619857D01*
X136449571Y-101111833D02*
X136473381Y-101135643D01*
X136497190Y-101207071D01*
X136497190Y-101254690D01*
X136473381Y-101326119D01*
X136425762Y-101373738D01*
X136378143Y-101397547D01*
X136282905Y-101421357D01*
X136211476Y-101421357D01*
X136116238Y-101397547D01*
X136068619Y-101373738D01*
X136021000Y-101326119D01*
X135997190Y-101254690D01*
X135997190Y-101207071D01*
X136021000Y-101135643D01*
X136044810Y-101111833D01*
X136497190Y-100635643D02*
X136497190Y-100921357D01*
X136497190Y-100778500D02*
X135997190Y-100778500D01*
X136068619Y-100826119D01*
X136116238Y-100873738D01*
X136140048Y-100921357D01*
D14*
X128992334Y-69004690D02*
X128992334Y-69361833D01*
X128968524Y-69433262D01*
X128920905Y-69480881D01*
X128849477Y-69504690D01*
X128801858Y-69504690D01*
X129182810Y-69004690D02*
X129492333Y-69004690D01*
X129325667Y-69195167D01*
X129397095Y-69195167D01*
X129444714Y-69218976D01*
X129468524Y-69242786D01*
X129492333Y-69290405D01*
X129492333Y-69409452D01*
X129468524Y-69457071D01*
X129444714Y-69480881D01*
X129397095Y-69504690D01*
X129254238Y-69504690D01*
X129206619Y-69480881D01*
X129182810Y-69457071D01*
X134512810Y-99361619D02*
X134489000Y-99409238D01*
X134441381Y-99456857D01*
X134369952Y-99528286D01*
X134346143Y-99575905D01*
X134346143Y-99623524D01*
X134465190Y-99599714D02*
X134441381Y-99647333D01*
X134393762Y-99694952D01*
X134298524Y-99718762D01*
X134131857Y-99718762D01*
X134036619Y-99694952D01*
X133989000Y-99647333D01*
X133965190Y-99599714D01*
X133965190Y-99504476D01*
X133989000Y-99456857D01*
X134036619Y-99409238D01*
X134131857Y-99385429D01*
X134298524Y-99385429D01*
X134393762Y-99409238D01*
X134441381Y-99456857D01*
X134465190Y-99504476D01*
X134465190Y-99599714D01*
X134465190Y-98909238D02*
X134465190Y-99194952D01*
X134465190Y-99052095D02*
X133965190Y-99052095D01*
X134036619Y-99099714D01*
X134084238Y-99147333D01*
X134108048Y-99194952D01*
X130218690Y-94868952D02*
X130623452Y-94868952D01*
X130671071Y-94845143D01*
X130694881Y-94821333D01*
X130718690Y-94773714D01*
X130718690Y-94678476D01*
X130694881Y-94630857D01*
X130671071Y-94607048D01*
X130623452Y-94583238D01*
X130218690Y-94583238D01*
X130718690Y-94083238D02*
X130718690Y-94368952D01*
X130718690Y-94226095D02*
X130218690Y-94226095D01*
X130290119Y-94273714D01*
X130337738Y-94321333D01*
X130361548Y-94368952D01*
D15*
X132143667Y-89114262D02*
X132286524Y-89161881D01*
X132524620Y-89161881D01*
X132619858Y-89114262D01*
X132667477Y-89066643D01*
X132715096Y-88971405D01*
X132715096Y-88876167D01*
X132667477Y-88780929D01*
X132619858Y-88733310D01*
X132524620Y-88685690D01*
X132334143Y-88638071D01*
X132238905Y-88590452D01*
X132191286Y-88542833D01*
X132143667Y-88447595D01*
X132143667Y-88352357D01*
X132191286Y-88257119D01*
X132238905Y-88209500D01*
X132334143Y-88161881D01*
X132572239Y-88161881D01*
X132715096Y-88209500D01*
X133048429Y-88161881D02*
X133286524Y-89161881D01*
X133477001Y-88447595D01*
X133667477Y-89161881D01*
X133905572Y-88161881D01*
X134810334Y-89161881D02*
X134238905Y-89161881D01*
X134524619Y-89161881D02*
X134524619Y-88161881D01*
X134429381Y-88304738D01*
X134334143Y-88399976D01*
X134238905Y-88447595D01*
X132080167Y-81748262D02*
X132223024Y-81795881D01*
X132461120Y-81795881D01*
X132556358Y-81748262D01*
X132603977Y-81700643D01*
X132651596Y-81605405D01*
X132651596Y-81510167D01*
X132603977Y-81414929D01*
X132556358Y-81367310D01*
X132461120Y-81319690D01*
X132270643Y-81272071D01*
X132175405Y-81224452D01*
X132127786Y-81176833D01*
X132080167Y-81081595D01*
X132080167Y-80986357D01*
X132127786Y-80891119D01*
X132175405Y-80843500D01*
X132270643Y-80795881D01*
X132508739Y-80795881D01*
X132651596Y-80843500D01*
X132984929Y-80795881D02*
X133223024Y-81795881D01*
X133413501Y-81081595D01*
X133603977Y-81795881D01*
X133842072Y-80795881D01*
X134175405Y-80891119D02*
X134223024Y-80843500D01*
X134318262Y-80795881D01*
X134556358Y-80795881D01*
X134651596Y-80843500D01*
X134699215Y-80891119D01*
X134746834Y-80986357D01*
X134746834Y-81081595D01*
X134699215Y-81224452D01*
X134127786Y-81795881D01*
X134746834Y-81795881D01*
D10*
X136981453Y-93571190D02*
X136981453Y-93071190D01*
X137100500Y-93071190D01*
X137171929Y-93095000D01*
X137219548Y-93142619D01*
X137243357Y-93190238D01*
X137267167Y-93285476D01*
X137267167Y-93356905D01*
X137243357Y-93452143D01*
X137219548Y-93499762D01*
X137171929Y-93547381D01*
X137100500Y-93571190D01*
X136981453Y-93571190D01*
X137743357Y-93571190D02*
X137457643Y-93571190D01*
X137600500Y-93571190D02*
X137600500Y-93071190D01*
X137552881Y-93142619D01*
X137505262Y-93190238D01*
X137457643Y-93214048D01*
M02*
