M48
;DRILL file {KiCad 4.0.7} date 12/25/19 13:06:28
;FORMAT={-:-/ absolute / inch / decimal}
FMAT,2
INCH,TZ
T1C0.016
T2C0.024
T3C0.043
T4C0.059
%
G90
G05
M72
T1
X5.0975Y-3.72
X5.125Y-3.675
X5.1275Y-3.76
X5.16Y-3.18
X5.335Y-3.86
X5.3375Y-3.64
X5.4Y-3.8075
X5.405Y-3.0375
T2
X5.2313Y-2.8188
X5.2313Y-2.9762
T3
X5.1241Y-3.1128
X5.1241Y-3.29
X5.125Y-3.405
X5.125Y-3.5822
X5.38Y-3.1128
X5.38Y-3.29
X5.3809Y-3.405
X5.3809Y-3.5822
T4
X5.2Y-2.6875
X5.2Y-4.01
X5.3Y-2.6875
X5.3Y-4.01
T0
M30
