G04 #@! TF.FileFunction,Legend,Top*
%FSLAX46Y46*%
G04 Gerber Fmt 4.6, Leading zero omitted, Abs format (unit mm)*
G04 Created by KiCad (PCBNEW 4.0.7) date 04/03/18 23:59:40*
%MOMM*%
%LPD*%
G01*
G04 APERTURE LIST*
%ADD10C,0.100000*%
%ADD11C,0.250000*%
%ADD12C,0.200000*%
%ADD13C,0.120000*%
%ADD14C,0.125000*%
%ADD15C,0.150000*%
G04 APERTURE END LIST*
D10*
D11*
X129690762Y-101861619D02*
X129738381Y-101718762D01*
X129738381Y-101480666D01*
X129690762Y-101385428D01*
X129643143Y-101337809D01*
X129547905Y-101290190D01*
X129452667Y-101290190D01*
X129357429Y-101337809D01*
X129309810Y-101385428D01*
X129262190Y-101480666D01*
X129214571Y-101671143D01*
X129166952Y-101766381D01*
X129119333Y-101814000D01*
X129024095Y-101861619D01*
X128928857Y-101861619D01*
X128833619Y-101814000D01*
X128786000Y-101766381D01*
X128738381Y-101671143D01*
X128738381Y-101433047D01*
X128786000Y-101290190D01*
X129738381Y-100861619D02*
X128738381Y-100861619D01*
X128738381Y-100480666D01*
X128786000Y-100385428D01*
X128833619Y-100337809D01*
X128928857Y-100290190D01*
X129071714Y-100290190D01*
X129166952Y-100337809D01*
X129214571Y-100385428D01*
X129262190Y-100480666D01*
X129262190Y-100861619D01*
X129214571Y-99861619D02*
X129214571Y-99528285D01*
X129738381Y-99385428D02*
X129738381Y-99861619D01*
X128738381Y-99861619D01*
X128738381Y-99385428D01*
X129214571Y-98956857D02*
X129214571Y-98623523D01*
X129738381Y-98480666D02*
X129738381Y-98956857D01*
X128738381Y-98956857D01*
X128738381Y-98480666D01*
X128738381Y-98194952D02*
X129738381Y-97861619D01*
X128738381Y-97528285D01*
X129262190Y-97004476D02*
X129738381Y-97004476D01*
X128738381Y-97337809D02*
X129262190Y-97004476D01*
X128738381Y-96671142D01*
X129690762Y-101861619D02*
X129738381Y-101718762D01*
X129738381Y-101480666D01*
X129690762Y-101385428D01*
X129643143Y-101337809D01*
X129547905Y-101290190D01*
X129452667Y-101290190D01*
X129357429Y-101337809D01*
X129309810Y-101385428D01*
X129262190Y-101480666D01*
X129214571Y-101671143D01*
X129166952Y-101766381D01*
X129119333Y-101814000D01*
X129024095Y-101861619D01*
X128928857Y-101861619D01*
X128833619Y-101814000D01*
X128786000Y-101766381D01*
X128738381Y-101671143D01*
X128738381Y-101433047D01*
X128786000Y-101290190D01*
X129738381Y-100861619D02*
X128738381Y-100861619D01*
X128738381Y-100480666D01*
X128786000Y-100385428D01*
X128833619Y-100337809D01*
X128928857Y-100290190D01*
X129071714Y-100290190D01*
X129166952Y-100337809D01*
X129214571Y-100385428D01*
X129262190Y-100480666D01*
X129262190Y-100861619D01*
X129214571Y-99861619D02*
X129214571Y-99528285D01*
X129738381Y-99385428D02*
X129738381Y-99861619D01*
X128738381Y-99861619D01*
X128738381Y-99385428D01*
X129214571Y-98956857D02*
X129214571Y-98623523D01*
X129738381Y-98480666D02*
X129738381Y-98956857D01*
X128738381Y-98956857D01*
X128738381Y-98480666D01*
X128738381Y-98194952D02*
X129738381Y-97861619D01*
X128738381Y-97528285D01*
X129262190Y-97004476D02*
X129738381Y-97004476D01*
X128738381Y-97337809D02*
X129262190Y-97004476D01*
X128738381Y-96671142D01*
D12*
X128270000Y-85090000D02*
X138430000Y-85090000D01*
D13*
X133587000Y-68871000D02*
X133587000Y-69321000D01*
X131737000Y-68871000D02*
X133587000Y-68871000D01*
X129187000Y-76671000D02*
X129437000Y-76671000D01*
X129187000Y-68871000D02*
X129437000Y-68871000D01*
X131737000Y-76671000D02*
X133587000Y-76671000D01*
X133587000Y-76671000D02*
X133587000Y-76221000D01*
X134137000Y-71071000D02*
X134137000Y-71521000D01*
X134137000Y-71071000D02*
X133687000Y-71071000D01*
X130750000Y-101540000D02*
X130750000Y-104200000D01*
X133350000Y-101540000D02*
X130750000Y-101540000D01*
X133350000Y-104200000D02*
X130750000Y-104200000D01*
X133350000Y-101540000D02*
X133350000Y-104200000D01*
X134620000Y-101540000D02*
X135950000Y-101540000D01*
X135950000Y-101540000D02*
X135950000Y-102870000D01*
X135950000Y-65980000D02*
X130750000Y-65980000D01*
X135950000Y-66040000D02*
X135950000Y-65980000D01*
X130750000Y-68640000D02*
X130750000Y-65980000D01*
X135950000Y-66040000D02*
X133350000Y-66040000D01*
X133350000Y-66040000D02*
X133350000Y-68640000D01*
X133350000Y-68640000D02*
X130750000Y-68640000D01*
X135950000Y-67310000D02*
X135950000Y-68640000D01*
X135950000Y-68640000D02*
X134620000Y-68640000D01*
X134110000Y-101402000D02*
X134110000Y-100472000D01*
X134110000Y-98242000D02*
X134110000Y-99172000D01*
X134110000Y-98242000D02*
X131950000Y-98242000D01*
X134110000Y-101402000D02*
X132650000Y-101402000D01*
X132450000Y-96860000D02*
X134250000Y-96860000D01*
X134250000Y-93640000D02*
X131300000Y-93640000D01*
X136783000Y-98006000D02*
X137283000Y-98006000D01*
X137283000Y-97066000D02*
X136783000Y-97066000D01*
X133600000Y-97006000D02*
X133100000Y-97006000D01*
X133100000Y-98066000D02*
X133600000Y-98066000D01*
X131175000Y-91987000D02*
X135675000Y-91987000D01*
X129925000Y-87987000D02*
X129925000Y-89487000D01*
X135675000Y-85487000D02*
X131175000Y-85487000D01*
X136925000Y-89487000D02*
X136925000Y-87987000D01*
X135652000Y-78066000D02*
X131152000Y-78066000D01*
X136902000Y-82066000D02*
X136902000Y-80566000D01*
X131152000Y-84566000D02*
X135652000Y-84566000D01*
X129902000Y-80566000D02*
X129902000Y-82066000D01*
D14*
X128865334Y-68179190D02*
X128865334Y-68536333D01*
X128841524Y-68607762D01*
X128793905Y-68655381D01*
X128722477Y-68679190D01*
X128674858Y-68679190D01*
X129055810Y-68179190D02*
X129365333Y-68179190D01*
X129198667Y-68369667D01*
X129270095Y-68369667D01*
X129317714Y-68393476D01*
X129341524Y-68417286D01*
X129365333Y-68464905D01*
X129365333Y-68583952D01*
X129341524Y-68631571D01*
X129317714Y-68655381D01*
X129270095Y-68679190D01*
X129127238Y-68679190D01*
X129079619Y-68655381D01*
X129055810Y-68631571D01*
X135342334Y-100564190D02*
X135342334Y-100921333D01*
X135318524Y-100992762D01*
X135270905Y-101040381D01*
X135199477Y-101064190D01*
X135151858Y-101064190D01*
X135842333Y-101064190D02*
X135556619Y-101064190D01*
X135699476Y-101064190D02*
X135699476Y-100564190D01*
X135651857Y-100635619D01*
X135604238Y-100683238D01*
X135556619Y-100707048D01*
D15*
X137739381Y-102258571D02*
X136739381Y-102258571D01*
X137739381Y-101782381D02*
X136739381Y-101782381D01*
X137739381Y-101210952D01*
X136739381Y-101210952D01*
X137739381Y-100734762D02*
X136739381Y-100734762D01*
X136739381Y-100353809D01*
X136787000Y-100258571D01*
X136834619Y-100210952D01*
X136929857Y-100163333D01*
X137072714Y-100163333D01*
X137167952Y-100210952D01*
X137215571Y-100258571D01*
X137263190Y-100353809D01*
X137263190Y-100734762D01*
X136739381Y-99734762D02*
X137548905Y-99734762D01*
X137644143Y-99687143D01*
X137691762Y-99639524D01*
X137739381Y-99544286D01*
X137739381Y-99353809D01*
X137691762Y-99258571D01*
X137644143Y-99210952D01*
X137548905Y-99163333D01*
X136739381Y-99163333D01*
X136739381Y-98830000D02*
X136739381Y-98258571D01*
X137739381Y-98544286D02*
X136739381Y-98544286D01*
D14*
X135088334Y-68941190D02*
X135088334Y-69298333D01*
X135064524Y-69369762D01*
X135016905Y-69417381D01*
X134945477Y-69441190D01*
X134897858Y-69441190D01*
X135302619Y-68988810D02*
X135326429Y-68965000D01*
X135374048Y-68941190D01*
X135493095Y-68941190D01*
X135540714Y-68965000D01*
X135564524Y-68988810D01*
X135588333Y-69036429D01*
X135588333Y-69084048D01*
X135564524Y-69155476D01*
X135278810Y-69441190D01*
X135588333Y-69441190D01*
D15*
X136739381Y-73016762D02*
X136739381Y-72826285D01*
X136787000Y-72731047D01*
X136882238Y-72635809D01*
X137072714Y-72588190D01*
X137406048Y-72588190D01*
X137596524Y-72635809D01*
X137691762Y-72731047D01*
X137739381Y-72826285D01*
X137739381Y-73016762D01*
X137691762Y-73112000D01*
X137596524Y-73207238D01*
X137406048Y-73254857D01*
X137072714Y-73254857D01*
X136882238Y-73207238D01*
X136787000Y-73112000D01*
X136739381Y-73016762D01*
X136739381Y-72159619D02*
X137548905Y-72159619D01*
X137644143Y-72112000D01*
X137691762Y-72064381D01*
X137739381Y-71969143D01*
X137739381Y-71778666D01*
X137691762Y-71683428D01*
X137644143Y-71635809D01*
X137548905Y-71588190D01*
X136739381Y-71588190D01*
X136739381Y-71254857D02*
X136739381Y-70683428D01*
X137739381Y-70969143D02*
X136739381Y-70969143D01*
X137739381Y-70350095D02*
X136739381Y-70350095D01*
X136739381Y-69969142D01*
X136787000Y-69873904D01*
X136834619Y-69826285D01*
X136929857Y-69778666D01*
X137072714Y-69778666D01*
X137167952Y-69826285D01*
X137215571Y-69873904D01*
X137263190Y-69969142D01*
X137263190Y-70350095D01*
X136739381Y-69350095D02*
X137548905Y-69350095D01*
X137644143Y-69302476D01*
X137691762Y-69254857D01*
X137739381Y-69159619D01*
X137739381Y-68969142D01*
X137691762Y-68873904D01*
X137644143Y-68826285D01*
X137548905Y-68778666D01*
X136739381Y-68778666D01*
X136739381Y-68445333D02*
X136739381Y-67873904D01*
X137739381Y-68159619D02*
X136739381Y-68159619D01*
D14*
X133623810Y-99869619D02*
X133600000Y-99917238D01*
X133552381Y-99964857D01*
X133480952Y-100036286D01*
X133457143Y-100083905D01*
X133457143Y-100131524D01*
X133576190Y-100107714D02*
X133552381Y-100155333D01*
X133504762Y-100202952D01*
X133409524Y-100226762D01*
X133242857Y-100226762D01*
X133147619Y-100202952D01*
X133100000Y-100155333D01*
X133076190Y-100107714D01*
X133076190Y-100012476D01*
X133100000Y-99964857D01*
X133147619Y-99917238D01*
X133242857Y-99893429D01*
X133409524Y-99893429D01*
X133504762Y-99917238D01*
X133552381Y-99964857D01*
X133576190Y-100012476D01*
X133576190Y-100107714D01*
X133576190Y-99417238D02*
X133576190Y-99702952D01*
X133576190Y-99560095D02*
X133076190Y-99560095D01*
X133147619Y-99607714D01*
X133195238Y-99655333D01*
X133219048Y-99702952D01*
D15*
X131220333Y-101395001D02*
X131253667Y-101295001D01*
X131253667Y-101128334D01*
X131220333Y-101061667D01*
X131187000Y-101028334D01*
X131120333Y-100995001D01*
X131053667Y-100995001D01*
X130987000Y-101028334D01*
X130953667Y-101061667D01*
X130920333Y-101128334D01*
X130887000Y-101261667D01*
X130853667Y-101328334D01*
X130820333Y-101361667D01*
X130753667Y-101395001D01*
X130687000Y-101395001D01*
X130620333Y-101361667D01*
X130587000Y-101328334D01*
X130553667Y-101261667D01*
X130553667Y-101095001D01*
X130587000Y-100995001D01*
X131253667Y-100695000D02*
X130553667Y-100695000D01*
X130620333Y-100395001D02*
X130587000Y-100361667D01*
X130553667Y-100295001D01*
X130553667Y-100128334D01*
X130587000Y-100061667D01*
X130620333Y-100028334D01*
X130687000Y-99995001D01*
X130753667Y-99995001D01*
X130853667Y-100028334D01*
X131253667Y-100428334D01*
X131253667Y-99995001D01*
X130553667Y-99761667D02*
X130553667Y-99328334D01*
X130820333Y-99561667D01*
X130820333Y-99461667D01*
X130853667Y-99395000D01*
X130887000Y-99361667D01*
X130953667Y-99328334D01*
X131120333Y-99328334D01*
X131187000Y-99361667D01*
X131220333Y-99395000D01*
X131253667Y-99461667D01*
X131253667Y-99661667D01*
X131220333Y-99728334D01*
X131187000Y-99761667D01*
X130553667Y-98895000D02*
X130553667Y-98828333D01*
X130587000Y-98761667D01*
X130620333Y-98728333D01*
X130687000Y-98695000D01*
X130820333Y-98661667D01*
X130987000Y-98661667D01*
X131120333Y-98695000D01*
X131187000Y-98728333D01*
X131220333Y-98761667D01*
X131253667Y-98828333D01*
X131253667Y-98895000D01*
X131220333Y-98961667D01*
X131187000Y-98995000D01*
X131120333Y-99028333D01*
X130987000Y-99061667D01*
X130820333Y-99061667D01*
X130687000Y-99028333D01*
X130620333Y-98995000D01*
X130587000Y-98961667D01*
X130553667Y-98895000D01*
X130553667Y-98061666D02*
X130553667Y-98195000D01*
X130587000Y-98261666D01*
X130620333Y-98295000D01*
X130720333Y-98361666D01*
X130853667Y-98395000D01*
X131120333Y-98395000D01*
X131187000Y-98361666D01*
X131220333Y-98328333D01*
X131253667Y-98261666D01*
X131253667Y-98128333D01*
X131220333Y-98061666D01*
X131187000Y-98028333D01*
X131120333Y-97995000D01*
X130953667Y-97995000D01*
X130887000Y-98028333D01*
X130853667Y-98061666D01*
X130820333Y-98128333D01*
X130820333Y-98261666D01*
X130853667Y-98328333D01*
X130887000Y-98361666D01*
X130953667Y-98395000D01*
D14*
X133076190Y-95630952D02*
X133480952Y-95630952D01*
X133528571Y-95607143D01*
X133552381Y-95583333D01*
X133576190Y-95535714D01*
X133576190Y-95440476D01*
X133552381Y-95392857D01*
X133528571Y-95369048D01*
X133480952Y-95345238D01*
X133076190Y-95345238D01*
X133576190Y-94845238D02*
X133576190Y-95130952D01*
X133576190Y-94988095D02*
X133076190Y-94988095D01*
X133147619Y-95035714D01*
X133195238Y-95083333D01*
X133219048Y-95130952D01*
D15*
X130872667Y-98485667D02*
X130172667Y-98485667D01*
X130172667Y-98219001D01*
X130206000Y-98152334D01*
X130239333Y-98119001D01*
X130306000Y-98085667D01*
X130406000Y-98085667D01*
X130472667Y-98119001D01*
X130506000Y-98152334D01*
X130539333Y-98219001D01*
X130539333Y-98485667D01*
X130872667Y-97785667D02*
X130172667Y-97785667D01*
X130806000Y-97052334D02*
X130839333Y-97085668D01*
X130872667Y-97185668D01*
X130872667Y-97252334D01*
X130839333Y-97352334D01*
X130772667Y-97419001D01*
X130706000Y-97452334D01*
X130572667Y-97485668D01*
X130472667Y-97485668D01*
X130339333Y-97452334D01*
X130272667Y-97419001D01*
X130206000Y-97352334D01*
X130172667Y-97252334D01*
X130172667Y-97185668D01*
X130206000Y-97085668D01*
X130239333Y-97052334D01*
X130872667Y-96385668D02*
X130872667Y-96785668D01*
X130872667Y-96585668D02*
X130172667Y-96585668D01*
X130272667Y-96652334D01*
X130339333Y-96719001D01*
X130372667Y-96785668D01*
X130172667Y-95952334D02*
X130172667Y-95885667D01*
X130206000Y-95819001D01*
X130239333Y-95785667D01*
X130306000Y-95752334D01*
X130439333Y-95719001D01*
X130606000Y-95719001D01*
X130739333Y-95752334D01*
X130806000Y-95785667D01*
X130839333Y-95819001D01*
X130872667Y-95885667D01*
X130872667Y-95952334D01*
X130839333Y-96019001D01*
X130806000Y-96052334D01*
X130739333Y-96085667D01*
X130606000Y-96119001D01*
X130439333Y-96119001D01*
X130306000Y-96085667D01*
X130239333Y-96052334D01*
X130206000Y-96019001D01*
X130172667Y-95952334D01*
X130506000Y-95185667D02*
X130506000Y-95419000D01*
X130872667Y-95419000D02*
X130172667Y-95419000D01*
X130172667Y-95085667D01*
X130239333Y-94852334D02*
X130206000Y-94819000D01*
X130172667Y-94752334D01*
X130172667Y-94585667D01*
X130206000Y-94519000D01*
X130239333Y-94485667D01*
X130306000Y-94452334D01*
X130372667Y-94452334D01*
X130472667Y-94485667D01*
X130872667Y-94885667D01*
X130872667Y-94452334D01*
X130172667Y-94019000D02*
X130172667Y-93952333D01*
X130206000Y-93885667D01*
X130239333Y-93852333D01*
X130306000Y-93819000D01*
X130439333Y-93785667D01*
X130606000Y-93785667D01*
X130739333Y-93819000D01*
X130806000Y-93852333D01*
X130839333Y-93885667D01*
X130872667Y-93952333D01*
X130872667Y-94019000D01*
X130839333Y-94085667D01*
X130806000Y-94119000D01*
X130739333Y-94152333D01*
X130606000Y-94185667D01*
X130439333Y-94185667D01*
X130306000Y-94152333D01*
X130239333Y-94119000D01*
X130206000Y-94085667D01*
X130172667Y-94019000D01*
X130172667Y-93352333D02*
X130172667Y-93285666D01*
X130206000Y-93219000D01*
X130239333Y-93185666D01*
X130306000Y-93152333D01*
X130439333Y-93119000D01*
X130606000Y-93119000D01*
X130739333Y-93152333D01*
X130806000Y-93185666D01*
X130839333Y-93219000D01*
X130872667Y-93285666D01*
X130872667Y-93352333D01*
X130839333Y-93419000D01*
X130806000Y-93452333D01*
X130739333Y-93485666D01*
X130606000Y-93519000D01*
X130439333Y-93519000D01*
X130306000Y-93485666D01*
X130239333Y-93452333D01*
X130206000Y-93419000D01*
X130172667Y-93352333D01*
X130606000Y-92818999D02*
X130606000Y-92285666D01*
X130872667Y-91952332D02*
X130172667Y-91952332D01*
X130872667Y-91618999D02*
X130172667Y-91618999D01*
X130172667Y-91352333D01*
X130206000Y-91285666D01*
X130239333Y-91252333D01*
X130306000Y-91218999D01*
X130406000Y-91218999D01*
X130472667Y-91252333D01*
X130506000Y-91285666D01*
X130539333Y-91352333D01*
X130539333Y-91618999D01*
D14*
X135933667Y-98730571D02*
X135909857Y-98754381D01*
X135838429Y-98778190D01*
X135790810Y-98778190D01*
X135719381Y-98754381D01*
X135671762Y-98706762D01*
X135647953Y-98659143D01*
X135624143Y-98563905D01*
X135624143Y-98492476D01*
X135647953Y-98397238D01*
X135671762Y-98349619D01*
X135719381Y-98302000D01*
X135790810Y-98278190D01*
X135838429Y-98278190D01*
X135909857Y-98302000D01*
X135933667Y-98325810D01*
X136409857Y-98778190D02*
X136124143Y-98778190D01*
X136267000Y-98778190D02*
X136267000Y-98278190D01*
X136219381Y-98349619D01*
X136171762Y-98397238D01*
X136124143Y-98421048D01*
X136386191Y-97000190D02*
X136100477Y-97000190D01*
X136243334Y-97000190D02*
X136243334Y-96500190D01*
X136195715Y-96571619D01*
X136148096Y-96619238D01*
X136100477Y-96643048D01*
X136695715Y-96500190D02*
X136743334Y-96500190D01*
X136790953Y-96524000D01*
X136814762Y-96547810D01*
X136838572Y-96595429D01*
X136862381Y-96690667D01*
X136862381Y-96809714D01*
X136838572Y-96904952D01*
X136814762Y-96952571D01*
X136790953Y-96976381D01*
X136743334Y-97000190D01*
X136695715Y-97000190D01*
X136648096Y-96976381D01*
X136624286Y-96952571D01*
X136600477Y-96904952D01*
X136576667Y-96809714D01*
X136576667Y-96690667D01*
X136600477Y-96595429D01*
X136624286Y-96547810D01*
X136648096Y-96524000D01*
X136695715Y-96500190D01*
X137171905Y-96500190D02*
X137219524Y-96500190D01*
X137267143Y-96524000D01*
X137290952Y-96547810D01*
X137314762Y-96595429D01*
X137338571Y-96690667D01*
X137338571Y-96809714D01*
X137314762Y-96904952D01*
X137290952Y-96952571D01*
X137267143Y-96976381D01*
X137219524Y-97000190D01*
X137171905Y-97000190D01*
X137124286Y-96976381D01*
X137100476Y-96952571D01*
X137076667Y-96904952D01*
X137052857Y-96809714D01*
X137052857Y-96690667D01*
X137076667Y-96595429D01*
X137100476Y-96547810D01*
X137124286Y-96524000D01*
X137171905Y-96500190D01*
X137552857Y-96666857D02*
X137552857Y-97000190D01*
X137552857Y-96714476D02*
X137576666Y-96690667D01*
X137624285Y-96666857D01*
X137695714Y-96666857D01*
X137743333Y-96690667D01*
X137767142Y-96738286D01*
X137767142Y-97000190D01*
X138171904Y-96738286D02*
X138005238Y-96738286D01*
X138005238Y-97000190D02*
X138005238Y-96500190D01*
X138243333Y-96500190D01*
X134663667Y-97762190D02*
X134497000Y-97524095D01*
X134377953Y-97762190D02*
X134377953Y-97262190D01*
X134568429Y-97262190D01*
X134616048Y-97286000D01*
X134639857Y-97309810D01*
X134663667Y-97357429D01*
X134663667Y-97428857D01*
X134639857Y-97476476D01*
X134616048Y-97500286D01*
X134568429Y-97524095D01*
X134377953Y-97524095D01*
X135139857Y-97762190D02*
X134854143Y-97762190D01*
X134997000Y-97762190D02*
X134997000Y-97262190D01*
X134949381Y-97333619D01*
X134901762Y-97381238D01*
X134854143Y-97405048D01*
X131353762Y-97762190D02*
X131068048Y-97762190D01*
X131210905Y-97762190D02*
X131210905Y-97262190D01*
X131163286Y-97333619D01*
X131115667Y-97381238D01*
X131068048Y-97405048D01*
X131663286Y-97262190D02*
X131710905Y-97262190D01*
X131758524Y-97286000D01*
X131782333Y-97309810D01*
X131806143Y-97357429D01*
X131829952Y-97452667D01*
X131829952Y-97571714D01*
X131806143Y-97666952D01*
X131782333Y-97714571D01*
X131758524Y-97738381D01*
X131710905Y-97762190D01*
X131663286Y-97762190D01*
X131615667Y-97738381D01*
X131591857Y-97714571D01*
X131568048Y-97666952D01*
X131544238Y-97571714D01*
X131544238Y-97452667D01*
X131568048Y-97357429D01*
X131591857Y-97309810D01*
X131615667Y-97286000D01*
X131663286Y-97262190D01*
X132044238Y-97762190D02*
X132044238Y-97262190D01*
X132329952Y-97762190D02*
X132115666Y-97476476D01*
X132329952Y-97262190D02*
X132044238Y-97547905D01*
D15*
X132091667Y-84891762D02*
X132234524Y-84939381D01*
X132472620Y-84939381D01*
X132567858Y-84891762D01*
X132615477Y-84844143D01*
X132663096Y-84748905D01*
X132663096Y-84653667D01*
X132615477Y-84558429D01*
X132567858Y-84510810D01*
X132472620Y-84463190D01*
X132282143Y-84415571D01*
X132186905Y-84367952D01*
X132139286Y-84320333D01*
X132091667Y-84225095D01*
X132091667Y-84129857D01*
X132139286Y-84034619D01*
X132186905Y-83987000D01*
X132282143Y-83939381D01*
X132520239Y-83939381D01*
X132663096Y-83987000D01*
X132996429Y-83939381D02*
X133234524Y-84939381D01*
X133425001Y-84225095D01*
X133615477Y-84939381D01*
X133853572Y-83939381D01*
X134758334Y-84939381D02*
X134186905Y-84939381D01*
X134472619Y-84939381D02*
X134472619Y-83939381D01*
X134377381Y-84082238D01*
X134282143Y-84177476D01*
X134186905Y-84225095D01*
X132068667Y-85970762D02*
X132211524Y-86018381D01*
X132449620Y-86018381D01*
X132544858Y-85970762D01*
X132592477Y-85923143D01*
X132640096Y-85827905D01*
X132640096Y-85732667D01*
X132592477Y-85637429D01*
X132544858Y-85589810D01*
X132449620Y-85542190D01*
X132259143Y-85494571D01*
X132163905Y-85446952D01*
X132116286Y-85399333D01*
X132068667Y-85304095D01*
X132068667Y-85208857D01*
X132116286Y-85113619D01*
X132163905Y-85066000D01*
X132259143Y-85018381D01*
X132497239Y-85018381D01*
X132640096Y-85066000D01*
X132973429Y-85018381D02*
X133211524Y-86018381D01*
X133402001Y-85304095D01*
X133592477Y-86018381D01*
X133830572Y-85018381D01*
X134163905Y-85113619D02*
X134211524Y-85066000D01*
X134306762Y-85018381D01*
X134544858Y-85018381D01*
X134640096Y-85066000D01*
X134687715Y-85113619D01*
X134735334Y-85208857D01*
X134735334Y-85304095D01*
X134687715Y-85446952D01*
X134116286Y-86018381D01*
X134735334Y-86018381D01*
M02*
